<?xml version="1.0" encoding="UTF-8"?>
<!--Generator: Apple Native CoreSVG 326-->
<!DOCTYPE svg
PUBLIC "-//W3C//DTD SVG 1.1//EN"
       "http://www.w3.org/Graphics/SVG/1.1/DTD/svg11.dtd">
<svg version="1.1" xmlns="http://www.w3.org/2000/svg" xmlns:xlink="http://www.w3.org/1999/xlink" viewBox="0 0 24.6631 20">
 <g>
  <rect height="20" opacity="0" width="24.6631" x="0" y="0"/>
  <path d="M0 9.96582C0 10.4053 0.185547 10.8545 0.498047 11.1572L8.76953 19.4238C9.11133 19.751 9.50195 19.9219 9.90234 19.9219C10.8496 19.9219 11.499 19.2627 11.499 18.3887C11.499 17.9053 11.2939 17.5244 10.9961 17.2266L7.9541 14.1748L3.77441 10.3223L3.11523 11.3281L7.76855 11.582L22.6318 11.582C23.6279 11.582 24.3018 10.9229 24.3018 9.96582C24.3018 8.99902 23.6279 8.34961 22.6318 8.34961L7.76855 8.34961L3.11523 8.59375L3.77441 9.60938L7.9541 5.75195L10.9961 2.69043C11.2939 2.39746 11.499 2.0166 11.499 1.53809C11.499 0.65918 10.8496 0 9.90234 0C9.50195 0 9.10156 0.166016 8.74023 0.527344L0.498047 8.76953C0.185547 9.07227 0 9.52637 0 9.96582Z" fill="white"/>
 </g>
</svg>
