<?xml version="1.0" encoding="UTF-8"?>
<!--Generator: Apple Native CoreSVG 326-->
<!DOCTYPE svg
PUBLIC "-//W3C//DTD SVG 1.1//EN"
       "http://www.w3.org/Graphics/SVG/1.1/DTD/svg11.dtd">
<svg version="1.1" xmlns="http://www.w3.org/2000/svg" xmlns:xlink="http://www.w3.org/1999/xlink" viewBox="0 0 16.3916 22.627">
 <g>
  <rect height="22.627" opacity="0" width="16.3916" x="0" y="0"/>
  <path d="M16.3916 11.3086C16.3818 10.752 16.1865 10.3076 15.7422 9.87793L6.09863 0.498047C5.76172 0.161133 5.36133 0 4.87305 0C3.8916 0 3.09082 0.78125 3.09082 1.75781C3.09082 2.23633 3.29102 2.69043 3.65723 3.04688L12.207 11.2988L3.65723 19.5605C3.2959 19.9219 3.09082 20.3613 3.09082 20.8545C3.09082 21.8311 3.8916 22.6221 4.87305 22.6221C5.35156 22.6221 5.76172 22.4561 6.09863 22.1191L15.7422 12.7393C16.1914 12.2998 16.3916 11.8506 16.3916 11.3086Z" fill="black" fill-opacity="0.85"/>
 </g>
</svg>
