<svg width="1728" height="1117" viewBox="0 0 1728 1117" fill="none" xmlns="http://www.w3.org/2000/svg">
<rect width="1728" height="1117" fill="white"/>
<g filter="url(#filter0_d_709_336)">
<rect x="529" y="48" width="670" height="56" rx="28" fill="#E4E4E4" shape-rendering="crispEdges"/>
<rect x="540.5" y="56" width="40" height="40" rx="20" fill="white"/>
<path d="M551.5 76H569.5M551.5 70H569.5M551.5 82H569.5" stroke="black" stroke-width="2" stroke-linecap="round" stroke-linejoin="round"/>
<rect x="596.5" y="53" width="90" height="46" rx="23" fill="white"/>
<path d="M614.082 83V68.9082H617.031V74.6309H623.379V68.9082H626.328V83H623.379V77.0625H617.031V83H614.082ZM633.794 83.2246C632.707 83.2246 631.766 83.0033 630.972 82.5605C630.184 82.1178 629.579 81.4798 629.155 80.6465C628.732 79.8132 628.521 78.8171 628.521 77.6582V77.6387C628.521 76.4928 628.736 75.5065 629.165 74.6797C629.595 73.8464 630.204 73.2083 630.991 72.7656C631.779 72.3164 632.713 72.0918 633.794 72.0918C634.881 72.0918 635.819 72.3164 636.607 72.7656C637.394 73.2083 638 73.8431 638.423 74.6699C638.853 75.4967 639.068 76.4863 639.068 77.6387V77.6582C639.068 78.8171 638.856 79.8132 638.433 80.6465C638.01 81.4798 637.404 82.1178 636.616 82.5605C635.829 83.0033 634.888 83.2246 633.794 83.2246ZM633.794 80.9883C634.295 80.9883 634.719 80.8581 635.064 80.5977C635.415 80.3307 635.685 79.9499 635.874 79.4551C636.063 78.9603 636.157 78.3646 636.157 77.668V77.6484C636.157 76.9518 636.063 76.3561 635.874 75.8613C635.685 75.3665 635.415 74.9889 635.064 74.7285C634.712 74.4616 634.289 74.3281 633.794 74.3281C633.306 74.3281 632.886 74.4616 632.534 74.7285C632.183 74.9889 631.913 75.3665 631.724 75.8613C631.535 76.3561 631.441 76.9518 631.441 77.6484V77.668C631.441 78.3646 631.532 78.9635 631.714 79.4648C631.903 79.9596 632.173 80.3372 632.525 80.5977C632.876 80.8581 633.299 80.9883 633.794 80.9883ZM640.987 83V72.3164H643.838V74.0156H643.985C644.213 73.4102 644.587 72.9382 645.108 72.5996C645.635 72.2611 646.25 72.0918 646.954 72.0918C647.442 72.0918 647.881 72.1732 648.272 72.3359C648.669 72.4922 649.008 72.7201 649.288 73.0195C649.567 73.319 649.776 73.6836 649.913 74.1133H650.059C650.222 73.7031 650.463 73.3483 650.782 73.0488C651.101 72.7428 651.475 72.5085 651.905 72.3457C652.334 72.1764 652.8 72.0918 653.301 72.0918C654.011 72.0918 654.623 72.2383 655.137 72.5312C655.658 72.8242 656.058 73.2376 656.338 73.7715C656.625 74.3053 656.768 74.9401 656.768 75.6758V83H653.916V76.3887C653.916 75.959 653.851 75.6009 653.721 75.3145C653.591 75.028 653.396 74.8132 653.135 74.6699C652.875 74.5267 652.549 74.4551 652.159 74.4551C651.781 74.4551 651.452 74.5397 651.172 74.709C650.892 74.8783 650.674 75.1126 650.518 75.4121C650.368 75.7116 650.293 76.0566 650.293 76.4473V83H647.461V76.2617C647.461 75.8841 647.39 75.5618 647.246 75.2949C647.11 75.0215 646.911 74.8132 646.651 74.6699C646.39 74.5267 646.078 74.4551 645.713 74.4551C645.342 74.4551 645.017 74.5462 644.737 74.7285C644.457 74.9043 644.235 75.1517 644.073 75.4707C643.916 75.7897 643.838 76.151 643.838 76.5547V83H640.987ZM663.843 83.2246C662.756 83.2246 661.822 83 661.041 82.5508C660.259 82.1016 659.657 81.4635 659.234 80.6367C658.817 79.8034 658.609 78.8171 658.609 77.6777V77.668C658.609 76.5352 658.817 75.5521 659.234 74.7188C659.657 73.8789 660.25 73.2311 661.011 72.7754C661.78 72.3197 662.685 72.0918 663.726 72.0918C664.768 72.0918 665.666 72.3132 666.421 72.7559C667.177 73.1986 667.759 73.8236 668.17 74.6309C668.58 75.4316 668.785 76.3724 668.785 77.4531V78.332H660.025V76.5449H667.427L666.08 78.2344V77.1016C666.08 76.4701 665.982 75.9395 665.787 75.5098C665.591 75.0801 665.321 74.7578 664.976 74.543C664.631 74.3281 664.231 74.2207 663.775 74.2207C663.319 74.2207 662.916 74.3314 662.564 74.5527C662.213 74.7741 661.936 75.0996 661.734 75.5293C661.532 75.959 661.431 76.4831 661.431 77.1016V78.2441C661.431 78.8431 661.529 79.3542 661.724 79.7773C661.926 80.2005 662.213 80.526 662.584 80.7539C662.955 80.9818 663.394 81.0957 663.902 81.0957C664.312 81.0957 664.66 81.0339 664.947 80.9102C665.24 80.7865 665.477 80.64 665.66 80.4707C665.842 80.2949 665.966 80.1322 666.031 79.9824L666.05 79.9238H668.697L668.677 80.0312C668.593 80.3763 668.44 80.7376 668.218 81.1152C667.997 81.4863 667.691 81.8314 667.3 82.1504C666.916 82.4694 666.438 82.7298 665.865 82.9316C665.292 83.127 664.618 83.2246 663.843 83.2246Z" fill="black"/>
<path d="M721.078 83V81.4473H725.385C726.446 81.4473 727.25 81.2357 727.797 80.8125C728.344 80.3893 728.617 79.7741 728.617 78.9668V78.9473C728.617 78.4069 728.49 77.9544 728.236 77.5898C727.982 77.2253 727.602 76.9518 727.094 76.7695C726.592 76.5872 725.967 76.4961 725.219 76.4961H721.078V74.9824H724.721C725.782 74.9824 726.583 74.7904 727.123 74.4062C727.663 74.0221 727.934 73.4557 727.934 72.707V72.6875C727.934 71.9779 727.693 71.431 727.211 71.0469C726.736 70.6562 726.065 70.4609 725.199 70.4609H721.078V68.9082H725.57C726.423 68.9082 727.159 69.0514 727.777 69.3379C728.396 69.6243 728.871 70.0312 729.203 70.5586C729.542 71.0859 729.711 71.7044 729.711 72.4141V72.4336C729.711 72.9219 729.6 73.3841 729.379 73.8203C729.164 74.25 728.871 74.6146 728.5 74.9141C728.135 75.207 727.722 75.3926 727.26 75.4707V75.6074C727.911 75.6855 728.471 75.8776 728.939 76.1836C729.415 76.4896 729.779 76.8867 730.033 77.375C730.294 77.8633 730.424 78.4167 730.424 79.0352V79.0547C730.424 79.875 730.232 80.5814 729.848 81.1738C729.47 81.7598 728.926 82.2122 728.217 82.5312C727.507 82.8438 726.651 83 725.648 83H721.078ZM720.199 83V68.9082H721.957V83H720.199ZM732.753 83V68.4395H734.452V83H732.753ZM741.586 83.1855C740.603 83.1855 739.75 82.9674 739.028 82.5312C738.305 82.0951 737.745 81.4733 737.348 80.666C736.957 79.8587 736.762 78.8984 736.762 77.7852V77.7656C736.762 76.6523 736.957 75.6921 737.348 74.8848C737.745 74.0775 738.305 73.459 739.028 73.0293C739.75 72.5931 740.6 72.375 741.577 72.375C742.566 72.375 743.419 72.5931 744.135 73.0293C744.858 73.459 745.414 74.0775 745.805 74.8848C746.202 75.6921 746.401 76.6523 746.401 77.7656V77.7852C746.401 78.8984 746.202 79.8587 745.805 80.666C745.414 81.4733 744.858 82.0951 744.135 82.5312C743.419 82.9674 742.569 83.1855 741.586 83.1855ZM741.586 81.6816C742.231 81.6816 742.781 81.5286 743.237 81.2227C743.699 80.9102 744.051 80.4642 744.291 79.8848C744.539 79.3053 744.663 78.6055 744.663 77.7852V77.7656C744.663 76.9453 744.539 76.2454 744.291 75.666C744.051 75.0866 743.699 74.6439 743.237 74.3379C742.781 74.0319 742.228 73.8789 741.577 73.8789C740.932 73.8789 740.379 74.0319 739.916 74.3379C739.461 74.6439 739.109 75.0866 738.862 75.666C738.621 76.2454 738.5 76.9453 738.5 77.7656V77.7852C738.5 78.6055 738.621 79.3053 738.862 79.8848C739.109 80.4642 739.461 80.9102 739.916 81.2227C740.379 81.5286 740.935 81.6816 741.586 81.6816ZM752.949 86.6914C752.109 86.6914 751.373 86.571 750.742 86.3301C750.117 86.0957 749.615 85.7637 749.238 85.334C748.86 84.9108 748.623 84.4193 748.525 83.8594L748.545 83.8301H750.283L750.302 83.8594C750.413 84.25 750.696 84.569 751.152 84.8164C751.608 85.0638 752.207 85.1875 752.949 85.1875C753.88 85.1875 754.606 84.9694 755.127 84.5332C755.647 84.097 755.908 83.4915 755.908 82.7168V80.7832H755.781C755.566 81.1673 755.293 81.4961 754.961 81.7695C754.635 82.043 754.264 82.2513 753.847 82.3945C753.431 82.5378 752.981 82.6094 752.5 82.6094C751.601 82.6094 750.823 82.3945 750.166 81.9648C749.508 81.5286 749 80.9264 748.642 80.1582C748.284 79.39 748.105 78.5046 748.105 77.502V77.4922C748.105 76.4896 748.287 75.6042 748.652 74.8359C749.017 74.0677 749.528 73.4655 750.185 73.0293C750.849 72.5931 751.634 72.375 752.539 72.375C753.027 72.375 753.476 72.4531 753.886 72.6094C754.303 72.7656 754.671 72.987 754.99 73.2734C755.315 73.5599 755.582 73.9017 755.791 74.2988H755.898V72.5605H757.597V82.8242C757.597 83.6055 757.408 84.2858 757.031 84.8652C756.653 85.4447 756.116 85.8939 755.42 86.2129C754.723 86.5319 753.899 86.6914 752.949 86.6914ZM752.871 81.1055C753.502 81.1055 754.046 80.9525 754.502 80.6465C754.964 80.3405 755.319 79.9173 755.566 79.377C755.813 78.8366 755.937 78.2116 755.937 77.502V77.4922C755.937 76.7826 755.813 76.1576 755.566 75.6172C755.319 75.0703 754.964 74.6439 754.502 74.3379C754.046 74.0319 753.502 73.8789 752.871 73.8789C752.226 73.8789 751.679 74.0319 751.23 74.3379C750.781 74.6439 750.436 75.0671 750.195 75.6074C749.961 76.1478 749.843 76.776 749.843 77.4922V77.502C749.843 78.2181 749.961 78.8464 750.195 79.3867C750.436 79.9271 750.781 80.3503 751.23 80.6562C751.679 80.9557 752.226 81.1055 752.871 81.1055ZM763.95 83.1855C763.169 83.1855 762.479 83.0651 761.88 82.8242C761.287 82.5833 760.812 82.2448 760.454 81.8086C760.102 81.3724 759.894 80.8613 759.829 80.2754V80.2559H761.557V80.2754C761.694 80.7311 761.964 81.0957 762.368 81.3691C762.778 81.6361 763.322 81.7695 763.999 81.7695C764.474 81.7695 764.888 81.7044 765.239 81.5742C765.591 81.4375 765.867 81.2487 766.069 81.0078C766.271 80.7669 766.372 80.4902 766.372 80.1777V80.1582C766.372 79.8001 766.235 79.5007 765.962 79.2598C765.688 79.0124 765.236 78.8105 764.604 78.6543L762.973 78.2637C762.322 78.1074 761.785 77.9056 761.362 77.6582C760.939 77.4043 760.626 77.0951 760.425 76.7305C760.223 76.3594 760.122 75.9264 760.122 75.4316V75.4219C760.122 74.8359 760.288 74.3151 760.62 73.8594C760.958 73.3971 761.421 73.0358 762.007 72.7754C762.593 72.5085 763.253 72.375 763.989 72.375C764.731 72.375 765.382 72.4954 765.942 72.7363C766.509 72.9707 766.961 73.3027 767.3 73.7324C767.645 74.1621 767.85 74.6634 767.915 75.2363L767.925 75.2656H766.264V75.2461C766.16 74.8164 765.913 74.4681 765.522 74.2012C765.132 73.9277 764.621 73.791 763.989 73.791C763.572 73.791 763.205 73.8561 762.886 73.9863C762.567 74.1165 762.316 74.2988 762.134 74.5332C761.951 74.7611 761.86 75.0312 761.86 75.3438V75.3633C761.86 75.5911 761.919 75.7995 762.036 75.9883C762.16 76.1706 762.348 76.3301 762.602 76.4668C762.856 76.6035 763.182 76.7207 763.579 76.8184L765.2 77.209C766.203 77.4499 766.938 77.7949 767.407 78.2441C767.876 78.6868 768.11 79.2826 768.11 80.0312V80.0508C768.11 80.6693 767.928 81.2161 767.563 81.6914C767.199 82.1602 766.704 82.528 766.079 82.7949C765.454 83.0553 764.744 83.1855 763.95 83.1855ZM774.834 68.4395L770.498 86.4961H768.867L773.203 68.4395H774.834ZM776.343 83V68.9082H778.052L786.402 80.8906L784.976 79.9141H785.855V68.9082H787.593V83H785.884L777.525 71.0469L778.95 72.0234H778.081V83H776.343ZM794.864 83.1855C793.881 83.1855 793.028 82.9674 792.305 82.5312C791.582 82.0951 791.023 81.4733 790.625 80.666C790.235 79.8587 790.039 78.8984 790.039 77.7852V77.7656C790.039 76.6523 790.235 75.6921 790.625 74.8848C791.023 74.0775 791.582 73.459 792.305 73.0293C793.028 72.5931 793.877 72.375 794.854 72.375C795.843 72.375 796.696 72.5931 797.412 73.0293C798.135 73.459 798.692 74.0775 799.082 74.8848C799.48 75.6921 799.678 76.6523 799.678 77.7656V77.7852C799.678 78.8984 799.48 79.8587 799.082 80.666C798.692 81.4733 798.135 82.0951 797.412 82.5312C796.696 82.9674 795.847 83.1855 794.864 83.1855ZM794.864 81.6816C795.508 81.6816 796.058 81.5286 796.514 81.2227C796.976 80.9102 797.328 80.4642 797.569 79.8848C797.816 79.3053 797.94 78.6055 797.94 77.7852V77.7656C797.94 76.9453 797.816 76.2454 797.569 75.666C797.328 75.0866 796.976 74.6439 796.514 74.3379C796.058 74.0319 795.505 73.8789 794.854 73.8789C794.209 73.8789 793.656 74.0319 793.194 74.3379C792.738 74.6439 792.386 75.0866 792.139 75.666C791.898 76.2454 791.778 76.9453 791.778 77.7656V77.7852C791.778 78.6055 791.898 79.3053 792.139 79.8848C792.386 80.4642 792.738 80.9102 793.194 81.2227C793.656 81.5286 794.213 81.6816 794.864 81.6816ZM805.543 83.1074C804.494 83.1074 803.729 82.8893 803.248 82.4531C802.772 82.0104 802.535 81.2943 802.535 80.3047V73.9668H800.914V72.5605H802.535V69.8359H804.293V72.5605H806.509V73.9668H804.293V79.9727C804.293 80.5716 804.41 80.998 804.644 81.252C804.879 81.4993 805.259 81.623 805.787 81.623C805.923 81.623 806.044 81.6198 806.148 81.6133C806.252 81.6068 806.373 81.597 806.509 81.584V83.0195C806.36 83.0391 806.203 83.0586 806.041 83.0781C805.878 83.0977 805.712 83.1074 805.543 83.1074ZM812.774 83.1855C811.778 83.1855 810.922 82.9674 810.206 82.5312C809.49 82.0885 808.94 81.4668 808.555 80.666C808.171 79.8587 807.979 78.9082 807.979 77.8145V77.8047C807.979 76.7305 808.171 75.7865 808.555 74.9727C808.94 74.1589 809.483 73.5241 810.186 73.0684C810.896 72.6061 811.723 72.375 812.667 72.375C813.611 72.375 814.425 72.5964 815.108 73.0391C815.792 73.4753 816.316 74.0872 816.68 74.875C817.045 75.6562 817.227 76.5677 817.227 77.6094V78.2637H808.848V76.9062H816.368L815.528 78.1465V77.4824C815.528 76.6621 815.404 75.9883 815.157 75.4609C814.91 74.9336 814.571 74.5397 814.141 74.2793C813.712 74.0189 813.217 73.8887 812.657 73.8887C812.097 73.8887 811.596 74.0254 811.153 74.2988C810.71 74.5723 810.359 74.9759 810.098 75.5098C809.845 76.0436 809.718 76.7012 809.718 77.4824V78.1465C809.718 78.8887 809.841 79.5234 810.089 80.0508C810.343 80.5716 810.701 80.972 811.163 81.252C811.632 81.5319 812.182 81.6719 812.813 81.6719C813.276 81.6719 813.679 81.6068 814.024 81.4766C814.376 81.3464 814.665 81.1803 814.893 80.9785C815.121 80.7702 815.281 80.5521 815.372 80.3242L815.411 80.2363H817.1L817.081 80.3145C816.996 80.6855 816.837 81.0436 816.602 81.3887C816.368 81.7272 816.068 82.0332 815.704 82.3066C815.339 82.5801 814.91 82.7949 814.415 82.9512C813.92 83.1074 813.373 83.1855 812.774 83.1855ZM823.062 83.1855C822.281 83.1855 821.591 83.0651 820.992 82.8242C820.4 82.5833 819.924 82.2448 819.566 81.8086C819.215 81.3724 819.007 80.8613 818.941 80.2754V80.2559H820.67V80.2754C820.807 80.7311 821.077 81.0957 821.48 81.3691C821.891 81.6361 822.434 81.7695 823.111 81.7695C823.587 81.7695 824 81.7044 824.352 81.5742C824.703 81.4375 824.98 81.2487 825.182 81.0078C825.383 80.7669 825.484 80.4902 825.484 80.1777V80.1582C825.484 79.8001 825.348 79.5007 825.074 79.2598C824.801 79.0124 824.348 78.8105 823.717 78.6543L822.086 78.2637C821.435 78.1074 820.898 77.9056 820.475 77.6582C820.051 77.4043 819.739 77.0951 819.537 76.7305C819.335 76.3594 819.234 75.9264 819.234 75.4316V75.4219C819.234 74.8359 819.4 74.3151 819.732 73.8594C820.071 73.3971 820.533 73.0358 821.119 72.7754C821.705 72.5085 822.366 72.375 823.102 72.375C823.844 72.375 824.495 72.4954 825.055 72.7363C825.621 72.9707 826.074 73.3027 826.412 73.7324C826.757 74.1621 826.962 74.6634 827.027 75.2363L827.037 75.2656H825.377V75.2461C825.273 74.8164 825.025 74.4681 824.635 74.2012C824.244 73.9277 823.733 73.791 823.102 73.791C822.685 73.791 822.317 73.8561 821.998 73.9863C821.679 74.1165 821.428 74.2988 821.246 74.5332C821.064 74.7611 820.973 75.0312 820.973 75.3438V75.3633C820.973 75.5911 821.031 75.7995 821.148 75.9883C821.272 76.1706 821.461 76.3301 821.715 76.4668C821.969 76.6035 822.294 76.7207 822.691 76.8184L824.312 77.209C825.315 77.4499 826.051 77.7949 826.52 78.2441C826.988 78.6868 827.223 79.2826 827.223 80.0312V80.0508C827.223 80.6693 827.04 81.2161 826.676 81.6914C826.311 82.1602 825.816 82.528 825.191 82.7949C824.566 83.0553 823.857 83.1855 823.062 83.1855Z" fill="black"/>
<path d="M879.078 77.9707V76.4082H882.994C884.003 76.4082 884.785 76.1478 885.338 75.627C885.891 75.0996 886.168 74.3737 886.168 73.4492V73.4297C886.168 72.4987 885.891 71.7728 885.338 71.252C884.785 70.7311 884.003 70.4707 882.994 70.4707H879.078V68.9082H883.443C884.329 68.9082 885.11 69.097 885.787 69.4746C886.464 69.8522 886.995 70.3796 887.379 71.0566C887.77 71.7337 887.965 72.5182 887.965 73.4102V73.4297C887.965 74.3216 887.77 75.1094 887.379 75.793C886.995 76.4766 886.464 77.0104 885.787 77.3945C885.11 77.7786 884.329 77.9707 883.443 77.9707H879.078ZM878.199 83V68.9082H879.957V83H878.199ZM893.722 83.1855C892.941 83.1855 892.28 83.0358 891.739 82.7363C891.206 82.4303 890.802 81.9876 890.529 81.4082C890.262 80.8288 890.128 80.1354 890.128 79.3281V72.5605H891.827V78.9375C891.827 79.8555 892.013 80.5423 892.384 80.998C892.755 81.4538 893.354 81.6816 894.181 81.6816C894.63 81.6816 895.027 81.6133 895.372 81.4766C895.717 81.3398 896.01 81.1445 896.251 80.8906C896.492 80.6367 896.671 80.3275 896.788 79.9629C896.912 79.5983 896.974 79.1882 896.974 78.7324V72.5605H898.673V83H896.974V81.457H896.847C896.678 81.8151 896.446 82.1243 896.154 82.3848C895.861 82.6452 895.509 82.8438 895.099 82.9805C894.695 83.1172 894.236 83.1855 893.722 83.1855ZM906.608 83.1855C906.12 83.1855 905.667 83.1107 905.25 82.9609C904.84 82.8112 904.472 82.5964 904.147 82.3164C903.821 82.0365 903.551 81.7012 903.336 81.3105H903.209V83H901.51V68.4395H903.209V74.2305H903.336C903.538 73.8464 903.802 73.5176 904.127 73.2441C904.459 72.9707 904.837 72.7591 905.26 72.6094C905.683 72.4531 906.136 72.375 906.618 72.375C907.496 72.375 908.265 72.5996 908.922 73.0488C909.58 73.4915 910.091 74.1165 910.455 74.9238C910.82 75.7311 911.002 76.6784 911.002 77.7656V77.7852C911.002 78.8724 910.82 79.8229 910.455 80.6367C910.091 81.444 909.58 82.0723 908.922 82.5215C908.265 82.9642 907.493 83.1855 906.608 83.1855ZM906.227 81.6816C906.865 81.6816 907.409 81.5254 907.858 81.2129C908.307 80.9004 908.652 80.4544 908.893 79.875C909.14 79.2891 909.264 78.5924 909.264 77.7852V77.7656C909.264 76.9583 909.14 76.265 908.893 75.6855C908.652 75.1061 908.307 74.6602 907.858 74.3477C907.409 74.0352 906.865 73.8789 906.227 73.8789C905.608 73.8789 905.068 74.0384 904.606 74.3574C904.15 74.6699 903.799 75.1191 903.551 75.7051C903.304 76.2845 903.18 76.9714 903.18 77.7656V77.7852C903.18 78.5794 903.304 79.2695 903.551 79.8555C903.799 80.4414 904.15 80.8939 904.606 81.2129C905.068 81.5254 905.608 81.6816 906.227 81.6816ZM913.322 83V68.4395H915.021V83H913.322ZM917.907 83V72.5605H919.606V83H917.907ZM918.766 70.6074C918.454 70.6074 918.184 70.4935 917.956 70.2656C917.728 70.0378 917.614 69.7676 917.614 69.4551C917.614 69.1361 917.728 68.8659 917.956 68.6445C918.184 68.4232 918.454 68.3125 918.766 68.3125C919.085 68.3125 919.356 68.4232 919.577 68.6445C919.798 68.8659 919.909 69.1361 919.909 69.4551C919.909 69.7676 919.798 70.0378 919.577 70.2656C919.356 70.4935 919.085 70.6074 918.766 70.6074ZM926.682 83.1855C925.705 83.1855 924.855 82.9642 924.133 82.5215C923.417 82.0723 922.86 81.444 922.463 80.6367C922.072 79.8229 921.877 78.8626 921.877 77.7559V77.7363C921.877 76.6491 922.072 75.7051 922.463 74.9043C922.86 74.1035 923.417 73.4818 924.133 73.0391C924.849 72.5964 925.695 72.375 926.672 72.375C927.525 72.375 928.257 72.528 928.869 72.834C929.488 73.14 929.979 73.5469 930.344 74.0547C930.708 74.5625 930.939 75.1224 931.037 75.7344L931.047 75.8027H929.367L929.348 75.7637C929.224 75.2428 928.934 74.8001 928.479 74.4355C928.029 74.0645 927.427 73.8789 926.672 73.8789C926.047 73.8789 925.507 74.0384 925.051 74.3574C924.595 74.6699 924.24 75.1159 923.986 75.6953C923.739 76.2747 923.615 76.9583 923.615 77.7461V77.7559C923.615 78.5632 923.742 79.2598 923.996 79.8457C924.25 80.4316 924.605 80.8841 925.061 81.2031C925.523 81.5221 926.06 81.6816 926.672 81.6816C927.382 81.6816 927.958 81.5254 928.4 81.2129C928.85 80.8939 929.165 80.4414 929.348 79.8555L929.367 79.7969L931.047 79.7871L931.027 79.8848C930.897 80.5228 930.646 81.0924 930.275 81.5938C929.904 82.0885 929.419 82.4792 928.82 82.7656C928.221 83.0456 927.508 83.1855 926.682 83.1855ZM936.023 83.1855C935.359 83.1855 934.763 83.0586 934.236 82.8047C933.715 82.5508 933.301 82.1927 932.995 81.7305C932.696 81.2617 932.546 80.7116 932.546 80.0801V80.0605C932.546 79.4421 932.693 78.9147 932.986 78.4785C933.285 78.0358 933.718 77.6875 934.284 77.4336C934.851 77.1797 935.538 77.0299 936.345 76.9844L940.183 76.7598V78.1074L936.55 78.332C935.775 78.3776 935.202 78.5436 934.831 78.8301C934.467 79.1165 934.284 79.5169 934.284 80.0312V80.0508C934.284 80.5716 934.48 80.9785 934.87 81.2715C935.267 81.5645 935.772 81.7109 936.384 81.7109C936.95 81.7109 937.455 81.597 937.898 81.3691C938.347 81.1413 938.698 80.8288 938.952 80.4316C939.206 80.0345 939.333 79.5885 939.333 79.0938V75.8809C939.333 75.2363 939.138 74.7415 938.747 74.3965C938.357 74.0514 937.777 73.8789 937.009 73.8789C936.371 73.8789 935.85 73.9993 935.446 74.2402C935.043 74.4746 934.776 74.8034 934.646 75.2266L934.636 75.2656H932.956L932.966 75.1973C933.044 74.6439 933.262 74.1556 933.62 73.7324C933.978 73.3092 934.45 72.9772 935.036 72.7363C935.622 72.4954 936.296 72.375 937.058 72.375C937.898 72.375 938.614 72.515 939.206 72.7949C939.805 73.0684 940.258 73.4655 940.564 73.9863C940.876 74.5007 941.032 75.1159 941.032 75.832V83H939.333V81.4277H939.206C938.991 81.7988 938.724 82.1178 938.405 82.3848C938.086 82.6452 937.728 82.8438 937.331 82.9805C936.934 83.1172 936.498 83.1855 936.023 83.1855ZM947.356 83.1074C946.308 83.1074 945.543 82.8893 945.061 82.4531C944.586 82.0104 944.348 81.2943 944.348 80.3047V73.9668H942.727V72.5605H944.348V69.8359H946.106V72.5605H948.323V73.9668H946.106V79.9727C946.106 80.5716 946.223 80.998 946.457 81.252C946.692 81.4993 947.073 81.623 947.6 81.623C947.737 81.623 947.857 81.6198 947.961 81.6133C948.065 81.6068 948.186 81.597 948.323 81.584V83.0195C948.173 83.0391 948.017 83.0586 947.854 83.0781C947.691 83.0977 947.525 83.1074 947.356 83.1074ZM950.545 83V72.5605H952.244V83H950.545ZM951.404 70.6074C951.091 70.6074 950.821 70.4935 950.593 70.2656C950.365 70.0378 950.252 69.7676 950.252 69.4551C950.252 69.1361 950.365 68.8659 950.593 68.6445C950.821 68.4232 951.091 68.3125 951.404 68.3125C951.723 68.3125 951.993 68.4232 952.214 68.6445C952.436 68.8659 952.546 69.1361 952.546 69.4551C952.546 69.7676 952.436 70.0378 952.214 70.2656C951.993 70.4935 951.723 70.6074 951.404 70.6074ZM959.339 83.1855C958.356 83.1855 957.503 82.9674 956.78 82.5312C956.057 82.0951 955.498 81.4733 955.1 80.666C954.71 79.8587 954.514 78.8984 954.514 77.7852V77.7656C954.514 76.6523 954.71 75.6921 955.1 74.8848C955.498 74.0775 956.057 73.459 956.78 73.0293C957.503 72.5931 958.352 72.375 959.329 72.375C960.318 72.375 961.171 72.5931 961.887 73.0293C962.61 73.459 963.167 74.0775 963.557 74.8848C963.955 75.6921 964.153 76.6523 964.153 77.7656V77.7852C964.153 78.8984 963.955 79.8587 963.557 80.666C963.167 81.4733 962.61 82.0951 961.887 82.5312C961.171 82.9674 960.322 83.1855 959.339 83.1855ZM959.339 81.6816C959.983 81.6816 960.533 81.5286 960.989 81.2227C961.451 80.9102 961.803 80.4642 962.044 79.8848C962.291 79.3053 962.415 78.6055 962.415 77.7852V77.7656C962.415 76.9453 962.291 76.2454 962.044 75.666C961.803 75.0866 961.451 74.6439 960.989 74.3379C960.533 74.0319 959.98 73.8789 959.329 73.8789C958.684 73.8789 958.131 74.0319 957.669 74.3379C957.213 74.6439 956.861 75.0866 956.614 75.666C956.373 76.2454 956.253 76.9453 956.253 77.7656V77.7852C956.253 78.6055 956.373 79.3053 956.614 79.8848C956.861 80.4642 957.213 80.9102 957.669 81.2227C958.131 81.5286 958.688 81.6816 959.339 81.6816ZM966.375 83V72.5605H968.074V74.1133H968.211C968.478 73.5729 968.862 73.1497 969.363 72.8438C969.871 72.5312 970.512 72.375 971.287 72.375C972.452 72.375 973.351 72.7135 973.982 73.3906C974.614 74.0612 974.93 75.0085 974.93 76.2324V83H973.23V76.623C973.23 75.6986 973.032 75.0117 972.635 74.5625C972.238 74.1068 971.626 73.8789 970.799 73.8789C970.245 73.8789 969.764 73.9993 969.354 74.2402C968.95 74.4811 968.634 74.8229 968.406 75.2656C968.185 75.7018 968.074 76.2227 968.074 76.8281V83H966.375ZM981.195 83.1855C980.413 83.1855 979.723 83.0651 979.124 82.8242C978.532 82.5833 978.057 82.2448 977.698 81.8086C977.347 81.3724 977.139 80.8613 977.073 80.2754V80.2559H978.802V80.2754C978.939 80.7311 979.209 81.0957 979.613 81.3691C980.023 81.6361 980.566 81.7695 981.243 81.7695C981.719 81.7695 982.132 81.7044 982.484 81.5742C982.835 81.4375 983.112 81.2487 983.314 81.0078C983.515 80.7669 983.616 80.4902 983.616 80.1777V80.1582C983.616 79.8001 983.48 79.5007 983.206 79.2598C982.933 79.0124 982.48 78.8105 981.849 78.6543L980.218 78.2637C979.567 78.1074 979.03 77.9056 978.607 77.6582C978.183 77.4043 977.871 77.0951 977.669 76.7305C977.467 76.3594 977.366 75.9264 977.366 75.4316V75.4219C977.366 74.8359 977.532 74.3151 977.864 73.8594C978.203 73.3971 978.665 73.0358 979.251 72.7754C979.837 72.5085 980.498 72.375 981.234 72.375C981.976 72.375 982.627 72.4954 983.187 72.7363C983.753 72.9707 984.206 73.3027 984.544 73.7324C984.889 74.1621 985.094 74.6634 985.159 75.2363L985.169 75.2656H983.509V75.2461C983.405 74.8164 983.157 74.4681 982.767 74.2012C982.376 73.9277 981.865 73.791 981.234 73.791C980.817 73.791 980.449 73.8561 980.13 73.9863C979.811 74.1165 979.56 74.2988 979.378 74.5332C979.196 74.7611 979.105 75.0312 979.105 75.3438V75.3633C979.105 75.5911 979.163 75.7995 979.28 75.9883C979.404 76.1706 979.593 76.3301 979.847 76.4668C980.101 76.6035 980.426 76.7207 980.823 76.8184L982.445 77.209C983.447 77.4499 984.183 77.7949 984.652 78.2441C985.12 78.6868 985.355 79.2826 985.355 80.0312V80.0508C985.355 80.6693 985.172 81.2161 984.808 81.6914C984.443 82.1602 983.948 82.528 983.323 82.7949C982.698 83.0553 981.989 83.1855 981.195 83.1855ZM992.079 68.4395L987.743 86.4961H986.112L990.448 68.4395H992.079ZM994.466 77.9707V76.4082H998.382C999.392 76.4082 1000.17 76.1478 1000.73 75.627C1001.28 75.0996 1001.56 74.3737 1001.56 73.4492V73.4297C1001.56 72.4987 1001.28 71.7728 1000.73 71.252C1000.17 70.7311 999.392 70.4707 998.382 70.4707H994.466V68.9082H998.832C999.717 68.9082 1000.5 69.097 1001.18 69.4746C1001.85 69.8522 1002.38 70.3796 1002.77 71.0566C1003.16 71.7337 1003.35 72.5182 1003.35 73.4102V73.4297C1003.35 74.3216 1003.16 75.1094 1002.77 75.793C1002.38 76.4766 1001.85 77.0104 1001.18 77.3945C1000.5 77.7786 999.717 77.9707 998.832 77.9707H994.466ZM993.588 83V68.9082H995.345V83H993.588ZM1009.57 83.1855C1008.59 83.1855 1007.73 82.9674 1007.01 82.5312C1006.29 82.0951 1005.73 81.4733 1005.33 80.666C1004.94 79.8587 1004.74 78.8984 1004.74 77.7852V77.7656C1004.74 76.6523 1004.94 75.6921 1005.33 74.8848C1005.73 74.0775 1006.29 73.459 1007.01 73.0293C1007.73 72.5931 1008.58 72.375 1009.56 72.375C1010.55 72.375 1011.4 72.5931 1012.12 73.0293C1012.84 73.459 1013.4 74.0775 1013.79 74.8848C1014.19 75.6921 1014.38 76.6523 1014.38 77.7656V77.7852C1014.38 78.8984 1014.19 79.8587 1013.79 80.666C1013.4 81.4733 1012.84 82.0951 1012.12 82.5312C1011.4 82.9674 1010.55 83.1855 1009.57 83.1855ZM1009.57 81.6816C1010.21 81.6816 1010.76 81.5286 1011.22 81.2227C1011.68 80.9102 1012.03 80.4642 1012.27 79.8848C1012.52 79.3053 1012.65 78.6055 1012.65 77.7852V77.7656C1012.65 76.9453 1012.52 76.2454 1012.27 75.666C1012.03 75.0866 1011.68 74.6439 1011.22 74.3379C1010.76 74.0319 1010.21 73.8789 1009.56 73.8789C1008.91 73.8789 1008.36 74.0319 1007.9 74.3379C1007.44 74.6439 1007.09 75.0866 1006.84 75.666C1006.6 76.2454 1006.48 76.9453 1006.48 77.7656V77.7852C1006.48 78.6055 1006.6 79.3053 1006.84 79.8848C1007.09 80.4642 1007.44 80.9102 1007.9 81.2227C1008.36 81.5286 1008.92 81.6816 1009.57 81.6816ZM1016.61 83V72.5605H1018.3V74.1621H1018.44C1018.63 73.6022 1018.96 73.166 1019.43 72.8535C1019.9 72.5345 1020.47 72.375 1021.15 72.375C1021.3 72.375 1021.46 72.3848 1021.61 72.4043C1021.76 72.4173 1021.87 72.4303 1021.96 72.4434V74.0938C1021.81 74.0612 1021.65 74.0384 1021.48 74.0254C1021.32 74.0059 1021.14 73.9961 1020.94 73.9961C1020.43 73.9961 1019.97 74.1003 1019.57 74.3086C1019.18 74.5169 1018.86 74.8132 1018.64 75.1973C1018.42 75.5749 1018.3 76.0208 1018.3 76.5352V83H1016.61ZM1027.61 83.1074C1026.56 83.1074 1025.79 82.8893 1025.31 82.4531C1024.84 82.0104 1024.6 81.2943 1024.6 80.3047V73.9668H1022.98V72.5605H1024.6V69.8359H1026.36V72.5605H1028.57V73.9668H1026.36V79.9727C1026.36 80.5716 1026.47 80.998 1026.71 81.252C1026.94 81.4993 1027.32 81.623 1027.85 81.623C1027.99 81.623 1028.11 81.6198 1028.21 81.6133C1028.32 81.6068 1028.44 81.597 1028.57 81.584V83.0195C1028.42 83.0391 1028.27 83.0586 1028.1 83.0781C1027.94 83.0977 1027.78 83.1074 1027.61 83.1074ZM1031.41 83V73.9668H1029.74V72.5605H1031.41V71.3691C1031.41 70.679 1031.52 70.1094 1031.74 69.6602C1031.97 69.2044 1032.31 68.8691 1032.75 68.6543C1033.19 68.4329 1033.74 68.3223 1034.4 68.3223C1034.6 68.3223 1034.8 68.3288 1034.98 68.3418C1035.17 68.3548 1035.35 68.3776 1035.51 68.4102V69.7676C1035.41 69.7546 1035.29 69.7448 1035.15 69.7383C1035.01 69.7318 1034.87 69.7285 1034.73 69.7285C1034.16 69.7285 1033.74 69.8685 1033.48 70.1484C1033.23 70.4284 1033.1 70.8483 1033.1 71.4082V72.5605H1035.42V73.9668H1033.11V83H1031.41ZM1041.25 83.1855C1040.27 83.1855 1039.41 82.9674 1038.69 82.5312C1037.97 82.0951 1037.41 81.4733 1037.01 80.666C1036.62 79.8587 1036.43 78.8984 1036.43 77.7852V77.7656C1036.43 76.6523 1036.62 75.6921 1037.01 74.8848C1037.41 74.0775 1037.97 73.459 1038.69 73.0293C1039.41 72.5931 1040.26 72.375 1041.24 72.375C1042.23 72.375 1043.08 72.5931 1043.8 73.0293C1044.52 73.459 1045.08 74.0775 1045.47 74.8848C1045.87 75.6921 1046.06 76.6523 1046.06 77.7656V77.7852C1046.06 78.8984 1045.87 79.8587 1045.47 80.666C1045.08 81.4733 1044.52 82.0951 1043.8 82.5312C1043.08 82.9674 1042.23 83.1855 1041.25 83.1855ZM1041.25 81.6816C1041.89 81.6816 1042.44 81.5286 1042.9 81.2227C1043.36 80.9102 1043.71 80.4642 1043.95 79.8848C1044.2 79.3053 1044.33 78.6055 1044.33 77.7852V77.7656C1044.33 76.9453 1044.2 76.2454 1043.95 75.666C1043.71 75.0866 1043.36 74.6439 1042.9 74.3379C1042.44 74.0319 1041.89 73.8789 1041.24 73.8789C1040.6 73.8789 1040.04 74.0319 1039.58 74.3379C1039.12 74.6439 1038.77 75.0866 1038.52 75.666C1038.28 76.2454 1038.16 76.9453 1038.16 77.7656V77.7852C1038.16 78.6055 1038.28 79.3053 1038.52 79.8848C1038.77 80.4642 1039.12 80.9102 1039.58 81.2227C1040.04 81.5286 1040.6 81.6816 1041.25 81.6816ZM1048.38 83V68.4395H1050.08V83H1048.38ZM1052.97 83V72.5605H1054.67V83H1052.97ZM1053.83 70.6074C1053.52 70.6074 1053.25 70.4935 1053.02 70.2656C1052.79 70.0378 1052.68 69.7676 1052.68 69.4551C1052.68 69.1361 1052.79 68.8659 1053.02 68.6445C1053.25 68.4232 1053.52 68.3125 1053.83 68.3125C1054.15 68.3125 1054.42 68.4232 1054.64 68.6445C1054.86 68.8659 1054.97 69.1361 1054.97 69.4551C1054.97 69.7676 1054.86 70.0378 1054.64 70.2656C1054.42 70.4935 1054.15 70.6074 1053.83 70.6074ZM1061.76 83.1855C1060.78 83.1855 1059.93 82.9674 1059.2 82.5312C1058.48 82.0951 1057.92 81.4733 1057.52 80.666C1057.13 79.8587 1056.94 78.8984 1056.94 77.7852V77.7656C1056.94 76.6523 1057.13 75.6921 1057.52 74.8848C1057.92 74.0775 1058.48 73.459 1059.2 73.0293C1059.93 72.5931 1060.78 72.375 1061.75 72.375C1062.74 72.375 1063.6 72.5931 1064.31 73.0293C1065.03 73.459 1065.59 74.0775 1065.98 74.8848C1066.38 75.6921 1066.58 76.6523 1066.58 77.7656V77.7852C1066.58 78.8984 1066.38 79.8587 1065.98 80.666C1065.59 81.4733 1065.03 82.0951 1064.31 82.5312C1063.6 82.9674 1062.75 83.1855 1061.76 83.1855ZM1061.76 81.6816C1062.41 81.6816 1062.96 81.5286 1063.41 81.2227C1063.88 80.9102 1064.23 80.4642 1064.47 79.8848C1064.72 79.3053 1064.84 78.6055 1064.84 77.7852V77.7656C1064.84 76.9453 1064.72 76.2454 1064.47 75.666C1064.23 75.0866 1063.88 74.6439 1063.41 74.3379C1062.96 74.0319 1062.4 73.8789 1061.75 73.8789C1061.11 73.8789 1060.56 74.0319 1060.09 74.3379C1059.64 74.6439 1059.29 75.0866 1059.04 75.666C1058.8 76.2454 1058.68 76.9453 1058.68 77.7656V77.7852C1058.68 78.6055 1058.8 79.3053 1059.04 79.8848C1059.29 80.4642 1059.64 80.9102 1060.09 81.2227C1060.56 81.5286 1061.11 81.6816 1061.76 81.6816Z" fill="black"/>
<path d="M1117.08 83L1122.28 68.9082H1123.62V71.1445H1123.08L1118.92 83H1117.08ZM1119.44 78.9668L1120 77.4727H1126.33L1126.89 78.9668H1119.44ZM1127.38 83L1123.21 71.1445V68.9082H1124.02L1129.22 83H1127.38ZM1136.26 83.1855C1135.77 83.1855 1135.32 83.1107 1134.9 82.9609C1134.49 82.8112 1134.13 82.5964 1133.8 82.3164C1133.47 82.0365 1133.2 81.7012 1132.99 81.3105H1132.86V83H1131.16V68.4395H1132.86V74.2305H1132.99C1133.19 73.8464 1133.45 73.5176 1133.78 73.2441C1134.11 72.9707 1134.49 72.7591 1134.91 72.6094C1135.34 72.4531 1135.79 72.375 1136.27 72.375C1137.15 72.375 1137.92 72.5996 1138.58 73.0488C1139.23 73.4915 1139.74 74.1165 1140.11 74.9238C1140.47 75.7311 1140.66 76.6784 1140.66 77.7656V77.7852C1140.66 78.8724 1140.47 79.8229 1140.11 80.6367C1139.74 81.444 1139.23 82.0723 1138.58 82.5215C1137.92 82.9642 1137.15 83.1855 1136.26 83.1855ZM1135.88 81.6816C1136.52 81.6816 1137.06 81.5254 1137.51 81.2129C1137.96 80.9004 1138.31 80.4544 1138.55 79.875C1138.79 79.2891 1138.92 78.5924 1138.92 77.7852V77.7656C1138.92 76.9583 1138.79 76.265 1138.55 75.6855C1138.31 75.1061 1137.96 74.6602 1137.51 74.3477C1137.06 74.0352 1136.52 73.8789 1135.88 73.8789C1135.26 73.8789 1134.72 74.0384 1134.26 74.3574C1133.8 74.6699 1133.45 75.1191 1133.2 75.7051C1132.96 76.2845 1132.83 76.9714 1132.83 77.7656V77.7852C1132.83 78.5794 1132.96 79.2695 1133.2 79.8555C1133.45 80.4414 1133.8 80.8939 1134.26 81.2129C1134.72 81.5254 1135.26 81.6816 1135.88 81.6816ZM1147.18 83.1855C1146.2 83.1855 1145.35 82.9674 1144.63 82.5312C1143.9 82.0951 1143.34 81.4733 1142.95 80.666C1142.56 79.8587 1142.36 78.8984 1142.36 77.7852V77.7656C1142.36 76.6523 1142.56 75.6921 1142.95 74.8848C1143.34 74.0775 1143.9 73.459 1144.63 73.0293C1145.35 72.5931 1146.2 72.375 1147.17 72.375C1148.16 72.375 1149.02 72.5931 1149.73 73.0293C1150.46 73.459 1151.01 74.0775 1151.4 74.8848C1151.8 75.6921 1152 76.6523 1152 77.7656V77.7852C1152 78.8984 1151.8 79.8587 1151.4 80.666C1151.01 81.4733 1150.46 82.0951 1149.73 82.5312C1149.02 82.9674 1148.17 83.1855 1147.18 83.1855ZM1147.18 81.6816C1147.83 81.6816 1148.38 81.5286 1148.83 81.2227C1149.3 80.9102 1149.65 80.4642 1149.89 79.8848C1150.14 79.3053 1150.26 78.6055 1150.26 77.7852V77.7656C1150.26 76.9453 1150.14 76.2454 1149.89 75.666C1149.65 75.0866 1149.3 74.6439 1148.83 74.3379C1148.38 74.0319 1147.83 73.8789 1147.17 73.8789C1146.53 73.8789 1145.98 74.0319 1145.51 74.3379C1145.06 74.6439 1144.71 75.0866 1144.46 75.666C1144.22 76.2454 1144.1 76.9453 1144.1 77.7656V77.7852C1144.1 78.6055 1144.22 79.3053 1144.46 79.8848C1144.71 80.4642 1145.06 80.9102 1145.51 81.2227C1145.98 81.5286 1146.53 81.6816 1147.18 81.6816ZM1157.74 83.1855C1156.95 83.1855 1156.29 83.0358 1155.75 82.7363C1155.22 82.4303 1154.82 81.9876 1154.54 81.4082C1154.28 80.8288 1154.14 80.1354 1154.14 79.3281V72.5605H1155.84V78.9375C1155.84 79.8555 1156.03 80.5423 1156.4 80.998C1156.77 81.4538 1157.37 81.6816 1158.19 81.6816C1158.64 81.6816 1159.04 81.6133 1159.39 81.4766C1159.73 81.3398 1160.02 81.1445 1160.27 80.8906C1160.51 80.6367 1160.69 80.3275 1160.8 79.9629C1160.93 79.5983 1160.99 79.1882 1160.99 78.7324V72.5605H1162.69V83H1160.99V81.457H1160.86C1160.69 81.8151 1160.46 82.1243 1160.17 82.3848C1159.87 82.6452 1159.52 82.8438 1159.11 82.9805C1158.71 83.1172 1158.25 83.1855 1157.74 83.1855ZM1169.07 83.1074C1168.02 83.1074 1167.26 82.8893 1166.77 82.4531C1166.3 82.0104 1166.06 81.2943 1166.06 80.3047V73.9668H1164.44V72.5605H1166.06V69.8359H1167.82V72.5605H1170.04V73.9668H1167.82V79.9727C1167.82 80.5716 1167.94 80.998 1168.17 81.252C1168.41 81.4993 1168.79 81.623 1169.31 81.623C1169.45 81.623 1169.57 81.6198 1169.67 81.6133C1169.78 81.6068 1169.9 81.597 1170.04 81.584V83.0195C1169.89 83.0391 1169.73 83.0586 1169.57 83.0781C1169.4 83.0977 1169.24 83.1074 1169.07 83.1074Z" fill="black"/>
</g>
<path d="M534.625 454.562C525.833 454.562 518.208 452.688 511.75 448.938C505.333 445.188 500.375 439.833 496.875 432.875C493.417 425.875 491.688 417.542 491.688 407.875V407.812C491.688 398.104 493.438 389.792 496.938 382.875C500.438 375.917 505.396 370.583 511.812 366.875C518.229 363.125 525.833 361.25 534.625 361.25C541.917 361.25 548.417 362.667 554.125 365.5C559.833 368.333 564.417 372.229 567.875 377.188C571.333 382.104 573.354 387.771 573.938 394.188L574 394.75H555.625L555.375 393.688C554.667 390.354 553.396 387.458 551.562 385C549.729 382.542 547.375 380.646 544.5 379.312C541.667 377.938 538.375 377.25 534.625 377.25C529.792 377.25 525.604 378.479 522.062 380.938C518.521 383.396 515.771 386.917 513.812 391.5C511.896 396.042 510.938 401.458 510.938 407.75V407.812C510.938 414.146 511.896 419.625 513.812 424.25C515.771 428.833 518.521 432.375 522.062 434.875C525.646 437.333 529.833 438.562 534.625 438.562C538.25 438.562 541.479 437.896 544.312 436.562C547.188 435.229 549.583 433.312 551.5 430.812C553.417 428.271 554.771 425.208 555.562 421.625L555.688 421H574.062L574 421.688C573.417 428.062 571.375 433.729 567.875 438.688C564.417 443.646 559.833 447.542 554.125 450.375C548.417 453.167 541.917 454.562 534.625 454.562ZM583.345 453V362.812H601.595V397.562H601.97C603.72 393.396 606.324 390.208 609.783 388C613.283 385.75 617.533 384.625 622.533 384.625C627.408 384.625 631.595 385.708 635.095 387.875C638.595 390 641.283 393.021 643.158 396.938C645.074 400.854 646.033 405.521 646.033 410.938V453H627.783V414.688C627.783 410.021 626.658 406.375 624.408 403.75C622.199 401.083 619.012 399.75 614.845 399.75C612.178 399.75 609.845 400.396 607.845 401.688C605.887 402.938 604.345 404.688 603.22 406.938C602.137 409.146 601.595 411.708 601.595 414.625V453H583.345ZM656.94 453V362.812H675.19V453H656.94ZM716.973 454.375C710.181 454.375 704.306 452.979 699.348 450.188C694.389 447.396 690.556 443.396 687.848 438.188C685.139 432.979 683.785 426.75 683.785 419.5V419.375C683.785 412.167 685.16 405.979 687.91 400.812C690.66 395.604 694.514 391.604 699.473 388.812C704.431 386.021 710.243 384.625 716.91 384.625C723.618 384.625 729.452 386.021 734.41 388.812C739.41 391.562 743.285 395.542 746.035 400.75C748.785 405.917 750.16 412.125 750.16 419.375V419.5C750.16 426.792 748.785 433.042 746.035 438.25C743.327 443.458 739.493 447.458 734.535 450.25C729.577 453 723.723 454.375 716.973 454.375ZM717.035 440.062C719.993 440.062 722.556 439.271 724.723 437.688C726.931 436.062 728.618 433.729 729.785 430.688C730.993 427.604 731.598 423.875 731.598 419.5V419.375C731.598 415.042 730.993 411.354 729.785 408.312C728.577 405.271 726.868 402.958 724.66 401.375C722.452 399.75 719.868 398.938 716.91 398.938C713.993 398.938 711.431 399.75 709.223 401.375C707.056 402.958 705.368 405.271 704.16 408.312C702.952 411.354 702.348 415.042 702.348 419.375V419.5C702.348 423.875 702.931 427.604 704.098 430.688C705.306 433.729 707.014 436.062 709.223 437.688C711.431 439.271 714.035 440.062 717.035 440.062ZM758.318 453V386H776.568V397.688H776.943C777.943 393.562 779.755 390.354 782.38 388.062C785.005 385.771 788.276 384.625 792.193 384.625C793.193 384.625 794.151 384.688 795.068 384.812C795.984 384.938 796.776 385.104 797.443 385.312V401.375C796.693 401.083 795.734 400.854 794.568 400.688C793.401 400.479 792.151 400.375 790.818 400.375C787.818 400.375 785.255 400.958 783.13 402.125C781.005 403.292 779.38 405 778.255 407.25C777.13 409.5 776.568 412.25 776.568 415.5V453H758.318ZM804.038 453V386H822.288V453H804.038ZM813.163 377.375C810.413 377.375 808.1 376.438 806.225 374.562C804.35 372.688 803.413 370.458 803.413 367.875C803.413 365.25 804.35 363.021 806.225 361.188C808.1 359.312 810.413 358.375 813.163 358.375C815.913 358.375 818.225 359.312 820.1 361.188C821.975 363.021 822.913 365.25 822.913 367.875C822.913 370.458 821.975 372.688 820.1 374.562C818.225 376.438 815.913 377.375 813.163 377.375ZM833.633 453V386H851.883V453H833.633ZM842.758 377.375C840.008 377.375 837.695 376.438 835.82 374.562C833.945 372.688 833.008 370.458 833.008 367.875C833.008 365.25 833.945 363.021 835.82 361.188C837.695 359.312 840.008 358.375 842.758 358.375C845.508 358.375 847.82 359.312 849.695 361.188C851.57 363.021 852.508 365.25 852.508 367.875C852.508 370.458 851.57 372.688 849.695 374.562C847.82 376.438 845.508 377.375 842.758 377.375ZM863.228 453V386H881.478V453H863.228ZM872.353 377.375C869.603 377.375 867.29 376.438 865.415 374.562C863.54 372.688 862.603 370.458 862.603 367.875C862.603 365.25 863.54 363.021 865.415 361.188C867.29 359.312 869.603 358.375 872.353 358.375C875.103 358.375 877.415 359.312 879.29 361.188C881.165 363.021 882.103 365.25 882.103 367.875C882.103 370.458 881.165 372.688 879.29 374.562C877.415 376.438 875.103 377.375 872.353 377.375ZM892.448 453V386H910.698V397H911.073C912.823 393.167 915.406 390.146 918.823 387.938C922.239 385.729 926.468 384.625 931.51 384.625C938.885 384.625 944.573 386.854 948.573 391.312C952.614 395.729 954.635 401.875 954.635 409.75V453H936.385V413.5C936.385 409.125 935.343 405.75 933.26 403.375C931.218 400.958 928.156 399.75 924.073 399.75C921.364 399.75 919.01 400.375 917.01 401.625C915.01 402.833 913.448 404.542 912.323 406.75C911.239 408.958 910.698 411.542 910.698 414.5V453H892.448ZM1053.7 386.44C1056.77 391.048 1061.51 398.728 1063.94 403.848L1054.21 408.2C1051.01 401.16 1048.32 396.168 1044.23 390.408L1053.7 386.44ZM1068.04 380.552C1071.24 385.032 1076.1 392.584 1078.79 397.576L1069.19 402.184C1065.73 395.272 1062.79 390.536 1058.69 384.904L1068.04 380.552ZM968.324 365.448C973.444 365.32 978.308 365.064 980.74 364.808C991.364 363.912 1012.36 361.992 1035.52 359.944C1048.58 358.92 1062.4 358.152 1071.36 357.768L1071.49 374.152C1064.71 374.152 1053.83 374.28 1047.04 375.816C1031.68 379.912 1020.29 396.296 1020.29 411.272C1020.29 432.136 1039.75 439.688 1061.25 440.712L1055.36 458.248C1028.74 456.584 1003.65 442.248 1003.65 414.728C1003.65 396.424 1013.76 382.088 1022.34 375.688C1011.33 376.84 984.708 379.656 969.988 382.856L968.324 365.448ZM1137.28 410.888C1137.28 416.776 1142.02 420.36 1147.01 420.36C1152.26 420.36 1157 416.392 1155.33 405.384C1153.54 402.312 1150.6 400.904 1147.01 400.904C1142.15 400.904 1137.28 404.232 1137.28 410.888ZM1204.87 364.936L1204.74 379.912C1197.06 379.528 1185.16 379.272 1168 379.272C1168.13 385.672 1168.13 392.584 1168.13 398.088C1171.33 402.824 1172.87 408.968 1172.87 415.624C1172.87 432.136 1163.14 453.128 1132.16 461.832L1118.72 448.264C1131.52 445.576 1142.66 441.352 1149.7 433.8C1147.91 434.184 1145.99 434.44 1143.94 434.44C1134.08 434.44 1122.05 426.632 1122.05 411.144C1122.05 396.808 1133.57 387.464 1147.4 387.464C1149.19 387.464 1150.85 387.592 1152.39 387.848L1152.26 379.4C1133.06 379.656 1113.48 380.424 1097.86 381.32L1097.48 365.96C1111.94 365.96 1134.98 365.32 1152 365.064C1152 363.528 1152 362.12 1151.88 361.224C1151.62 357.128 1151.24 352.264 1150.72 350.216H1169.16C1168.77 352.264 1168.39 359.048 1168.26 361.096C1168.26 362.12 1168.13 363.4 1168.13 364.936C1180.93 364.936 1198.21 364.808 1204.87 364.936ZM1224.37 421.256C1235.89 421.256 1245.11 430.6 1245.11 441.992C1245.11 453.384 1235.89 462.728 1224.37 462.728C1213.11 462.728 1203.77 453.384 1203.77 441.992C1203.77 430.6 1213.11 421.256 1224.37 421.256ZM1224.37 453.384C1230.77 453.384 1235.89 448.392 1235.89 441.992C1235.89 435.592 1230.77 430.472 1224.37 430.472C1218.23 430.472 1212.98 435.592 1212.98 441.992C1212.98 448.392 1218.23 453.384 1224.37 453.384ZM495.5 544.781V537.406H506.562C509.271 537.406 511.375 536.719 512.875 535.344C514.396 533.948 515.156 531.969 515.156 529.406V529.344C515.156 526.781 514.396 524.812 512.875 523.438C511.375 522.062 509.271 521.375 506.562 521.375H495.5V513.906H508.875C512.042 513.906 514.812 514.552 517.188 515.844C519.562 517.115 521.406 518.906 522.719 521.219C524.052 523.531 524.719 526.229 524.719 529.312V529.375C524.719 532.479 524.052 535.188 522.719 537.5C521.406 539.812 519.562 541.604 517.188 542.875C514.812 544.146 512.042 544.781 508.875 544.781H495.5ZM490.75 559V513.906H500.188V559H490.75ZM529.11 559V513.906H538.235V559H529.11ZM559.001 559.688C555.585 559.688 552.647 558.99 550.189 557.594C547.73 556.177 545.835 554.167 544.501 551.562C543.189 548.958 542.533 545.875 542.533 542.312V542.281C542.533 538.719 543.189 535.635 544.501 533.031C545.835 530.406 547.699 528.385 550.095 526.969C552.512 525.531 555.355 524.812 558.626 524.812C561.897 524.812 564.72 525.51 567.095 526.906C569.491 528.281 571.335 530.229 572.626 532.75C573.939 535.271 574.595 538.219 574.595 541.594V544.406H547.001V538.656H570.283L565.939 544.031V540.531C565.939 538.573 565.637 536.938 565.033 535.625C564.428 534.292 563.585 533.292 562.501 532.625C561.439 531.958 560.199 531.625 558.783 531.625C557.366 531.625 556.105 531.969 555.001 532.656C553.918 533.344 553.064 534.354 552.439 535.688C551.835 537 551.533 538.615 551.533 540.531V544.062C551.533 545.917 551.835 547.5 552.439 548.812C553.064 550.125 553.949 551.135 555.095 551.844C556.241 552.531 557.605 552.875 559.189 552.875C560.439 552.875 561.522 552.677 562.439 552.281C563.355 551.885 564.105 551.385 564.689 550.781C565.272 550.177 565.668 549.562 565.876 548.938L565.939 548.75H574.314L574.22 549.094C573.97 550.323 573.48 551.562 572.751 552.812C572.022 554.062 571.033 555.208 569.783 556.25C568.553 557.292 567.043 558.125 565.251 558.75C563.48 559.375 561.397 559.688 559.001 559.688ZM588.643 559.531C586.413 559.531 584.455 559.104 582.768 558.25C581.08 557.375 579.757 556.177 578.799 554.656C577.861 553.115 577.393 551.365 577.393 549.406V549.344C577.393 547.302 577.903 545.562 578.924 544.125C579.945 542.667 581.424 541.521 583.361 540.688C585.299 539.854 587.653 539.344 590.424 539.156L603.486 538.344V544.031L591.799 544.781C590.049 544.885 588.715 545.302 587.799 546.031C586.882 546.74 586.424 547.688 586.424 548.875V548.938C586.424 550.167 586.893 551.135 587.83 551.844C588.768 552.531 590.028 552.875 591.611 552.875C592.965 552.875 594.174 552.615 595.236 552.094C596.32 551.552 597.163 550.823 597.768 549.906C598.393 548.969 598.705 547.917 598.705 546.75V536.594C598.705 535.115 598.236 533.948 597.299 533.094C596.361 532.219 594.997 531.781 593.205 531.781C591.497 531.781 590.143 532.135 589.143 532.844C588.143 533.552 587.528 534.448 587.299 535.531L587.236 535.812H578.893L578.924 535.438C579.09 533.375 579.768 531.542 580.955 529.938C582.163 528.333 583.83 527.083 585.955 526.188C588.101 525.271 590.643 524.812 593.58 524.812C596.476 524.812 598.986 525.281 601.111 526.219C603.236 527.135 604.882 528.438 606.049 530.125C607.236 531.812 607.83 533.781 607.83 536.031V559H598.705V554H598.518C597.893 555.146 597.08 556.135 596.08 556.969C595.101 557.781 593.986 558.417 592.736 558.875C591.486 559.312 590.122 559.531 588.643 559.531ZM626.878 559.688C623.794 559.688 621.169 559.24 619.003 558.344C616.836 557.448 615.138 556.208 613.909 554.625C612.7 553.021 611.971 551.167 611.721 549.062L611.69 548.781H620.596L620.659 549.062C620.95 550.375 621.607 551.396 622.628 552.125C623.648 552.854 625.065 553.219 626.878 553.219C628.044 553.219 629.034 553.083 629.846 552.812C630.659 552.521 631.284 552.115 631.721 551.594C632.18 551.073 632.409 550.448 632.409 549.719V549.688C632.409 548.792 632.086 548.073 631.44 547.531C630.794 546.99 629.648 546.531 628.003 546.156L622.315 544.969C620.148 544.51 618.336 543.854 616.878 543C615.44 542.125 614.357 541.052 613.628 539.781C612.898 538.49 612.534 537.01 612.534 535.344V535.312C612.534 533.167 613.107 531.312 614.253 529.75C615.398 528.188 617.023 526.979 619.128 526.125C621.253 525.25 623.732 524.812 626.565 524.812C629.523 524.812 632.034 525.292 634.096 526.25C636.18 527.188 637.773 528.458 638.878 530.062C640.003 531.667 640.596 533.448 640.659 535.406V535.719H632.253L632.221 535.469C632.075 534.26 631.513 533.26 630.534 532.469C629.575 531.656 628.253 531.25 626.565 531.25C625.523 531.25 624.617 531.396 623.846 531.688C623.075 531.979 622.482 532.396 622.065 532.938C621.648 533.458 621.44 534.083 621.44 534.812V534.844C621.44 535.406 621.575 535.917 621.846 536.375C622.138 536.812 622.617 537.198 623.284 537.531C623.95 537.865 624.846 538.156 625.971 538.406L631.659 539.625C635.18 540.354 637.7 541.448 639.221 542.906C640.763 544.365 641.534 546.323 641.534 548.781V548.812C641.534 551 640.909 552.906 639.659 554.531C638.409 556.156 636.68 557.427 634.471 558.344C632.284 559.24 629.753 559.688 626.878 559.688ZM660.644 559.688C657.227 559.688 654.29 558.99 651.831 557.594C649.373 556.177 647.477 554.167 646.144 551.562C644.831 548.958 644.175 545.875 644.175 542.312V542.281C644.175 538.719 644.831 535.635 646.144 533.031C647.477 530.406 649.342 528.385 651.738 526.969C654.154 525.531 656.998 524.812 660.269 524.812C663.54 524.812 666.363 525.51 668.738 526.906C671.133 528.281 672.977 530.229 674.269 532.75C675.581 535.271 676.238 538.219 676.238 541.594V544.406H648.644V538.656H671.925L667.581 544.031V540.531C667.581 538.573 667.279 536.938 666.675 535.625C666.071 534.292 665.227 533.292 664.144 532.625C663.081 531.958 661.842 531.625 660.425 531.625C659.008 531.625 657.748 531.969 656.644 532.656C655.56 533.344 654.706 534.354 654.081 535.688C653.477 537 653.175 538.615 653.175 540.531V544.062C653.175 545.917 653.477 547.5 654.081 548.812C654.706 550.125 655.592 551.135 656.738 551.844C657.883 552.531 659.248 552.875 660.831 552.875C662.081 552.875 663.165 552.677 664.081 552.281C664.998 551.885 665.748 551.385 666.331 550.781C666.915 550.177 667.31 549.562 667.519 548.938L667.581 548.75H675.956L675.863 549.094C675.613 550.323 675.123 551.562 674.394 552.812C673.665 554.062 672.675 555.208 671.425 556.25C670.196 557.292 668.685 558.125 666.894 558.75C665.123 559.375 663.04 559.688 660.644 559.688ZM706.145 559.688C703.062 559.688 700.437 559.24 698.27 558.344C696.103 557.448 694.405 556.208 693.176 554.625C691.968 553.021 691.239 551.167 690.989 549.062L690.958 548.781H699.864L699.926 549.062C700.218 550.375 700.874 551.396 701.895 552.125C702.916 552.854 704.333 553.219 706.145 553.219C707.312 553.219 708.301 553.083 709.114 552.812C709.926 552.521 710.551 552.115 710.989 551.594C711.447 551.073 711.676 550.448 711.676 549.719V549.688C711.676 548.792 711.353 548.073 710.708 547.531C710.062 546.99 708.916 546.531 707.27 546.156L701.583 544.969C699.416 544.51 697.603 543.854 696.145 543C694.708 542.125 693.624 541.052 692.895 539.781C692.166 538.49 691.801 537.01 691.801 535.344V535.312C691.801 533.167 692.374 531.312 693.52 529.75C694.666 528.188 696.291 526.979 698.395 526.125C700.52 525.25 702.999 524.812 705.833 524.812C708.791 524.812 711.301 525.292 713.364 526.25C715.447 527.188 717.041 528.458 718.145 530.062C719.27 531.667 719.864 533.448 719.926 535.406V535.719H711.52L711.489 535.469C711.343 534.26 710.78 533.26 709.801 532.469C708.843 531.656 707.52 531.25 705.833 531.25C704.791 531.25 703.885 531.396 703.114 531.688C702.343 531.979 701.749 532.396 701.333 532.938C700.916 533.458 700.708 534.083 700.708 534.812V534.844C700.708 535.406 700.843 535.917 701.114 536.375C701.405 536.812 701.885 537.198 702.551 537.531C703.218 537.865 704.114 538.156 705.239 538.406L710.926 539.625C714.447 540.354 716.968 541.448 718.489 542.906C720.03 544.365 720.801 546.323 720.801 548.781V548.812C720.801 551 720.176 552.906 718.926 554.531C717.676 556.156 715.947 557.427 713.739 558.344C711.551 559.24 709.02 559.688 706.145 559.688ZM739.911 559.688C736.495 559.688 733.557 558.99 731.099 557.594C728.64 556.177 726.745 554.167 725.411 551.562C724.099 548.958 723.443 545.875 723.443 542.312V542.281C723.443 538.719 724.099 535.635 725.411 533.031C726.745 530.406 728.609 528.385 731.005 526.969C733.422 525.531 736.265 524.812 739.536 524.812C742.807 524.812 745.63 525.51 748.005 526.906C750.401 528.281 752.245 530.229 753.536 532.75C754.849 535.271 755.505 538.219 755.505 541.594V544.406H727.911V538.656H751.193L746.849 544.031V540.531C746.849 538.573 746.547 536.938 745.943 535.625C745.338 534.292 744.495 533.292 743.411 532.625C742.349 531.958 741.109 531.625 739.693 531.625C738.276 531.625 737.015 531.969 735.911 532.656C734.828 533.344 733.974 534.354 733.349 535.688C732.745 537 732.443 538.615 732.443 540.531V544.062C732.443 545.917 732.745 547.5 733.349 548.812C733.974 550.125 734.859 551.135 736.005 551.844C737.151 552.531 738.515 552.875 740.099 552.875C741.349 552.875 742.432 552.677 743.349 552.281C744.265 551.885 745.015 551.385 745.599 550.781C746.182 550.177 746.578 549.562 746.786 548.938L746.849 548.75H755.224L755.13 549.094C754.88 550.323 754.39 551.562 753.661 552.812C752.932 554.062 751.943 555.208 750.693 556.25C749.463 557.292 747.953 558.125 746.161 558.75C744.39 559.375 742.307 559.688 739.911 559.688ZM759.802 559V513.906H768.927V559H759.802ZM789.694 559.688C786.277 559.688 783.34 558.99 780.881 557.594C778.423 556.177 776.527 554.167 775.194 551.562C773.881 548.958 773.225 545.875 773.225 542.312V542.281C773.225 538.719 773.881 535.635 775.194 533.031C776.527 530.406 778.392 528.385 780.788 526.969C783.204 525.531 786.048 524.812 789.319 524.812C792.59 524.812 795.413 525.51 797.788 526.906C800.183 528.281 802.027 530.229 803.319 532.75C804.631 535.271 805.288 538.219 805.288 541.594V544.406H777.694V538.656H800.975L796.631 544.031V540.531C796.631 538.573 796.329 536.938 795.725 535.625C795.121 534.292 794.277 533.292 793.194 532.625C792.131 531.958 790.892 531.625 789.475 531.625C788.058 531.625 786.798 531.969 785.694 532.656C784.61 533.344 783.756 534.354 783.131 535.688C782.527 537 782.225 538.615 782.225 540.531V544.062C782.225 545.917 782.527 547.5 783.131 548.812C783.756 550.125 784.642 551.135 785.788 551.844C786.933 552.531 788.298 552.875 789.881 552.875C791.131 552.875 792.215 552.677 793.131 552.281C794.048 551.885 794.798 551.385 795.381 550.781C795.965 550.177 796.36 549.562 796.569 548.938L796.631 548.75H805.006L804.913 549.094C804.663 550.323 804.173 551.562 803.444 552.812C802.715 554.062 801.725 555.208 800.475 556.25C799.246 557.292 797.735 558.125 795.944 558.75C794.173 559.375 792.09 559.688 789.694 559.688ZM824.679 559.688C821.283 559.688 818.345 558.979 815.866 557.562C813.387 556.146 811.481 554.135 810.147 551.531C808.814 548.906 808.147 545.802 808.147 542.219V542.188C808.147 538.604 808.814 535.521 810.147 532.938C811.502 530.333 813.408 528.333 815.866 526.938C818.345 525.521 821.252 524.812 824.585 524.812C827.627 524.812 830.262 525.385 832.491 526.531C834.72 527.656 836.46 529.188 837.71 531.125C838.981 533.062 839.679 535.24 839.804 537.656V537.875H831.335L831.272 537.594C831.002 535.99 830.314 534.656 829.21 533.594C828.106 532.51 826.606 531.969 824.71 531.969C823.231 531.969 821.939 532.385 820.835 533.219C819.752 534.031 818.908 535.208 818.304 536.75C817.72 538.271 817.429 540.094 817.429 542.219V542.25C817.429 544.438 817.72 546.302 818.304 547.844C818.908 549.365 819.752 550.531 820.835 551.344C821.939 552.135 823.241 552.531 824.741 552.531C826.575 552.531 828.043 552.021 829.147 551C830.272 549.958 830.991 548.594 831.304 546.906L831.335 546.625H839.835V546.812C839.689 549.25 838.981 551.438 837.71 553.375C836.439 555.312 834.689 556.854 832.46 558C830.252 559.125 827.658 559.688 824.679 559.688ZM856.914 559.688C853.205 559.688 850.455 558.906 848.664 557.344C846.872 555.781 845.976 553.208 845.976 549.625V532.375H841.32V525.5H845.976V517.312H855.195V525.5H861.32V532.375H855.195V548.625C855.195 550.188 855.539 551.281 856.226 551.906C856.935 552.51 857.976 552.812 859.351 552.812C859.768 552.812 860.133 552.802 860.445 552.781C860.758 552.74 861.049 552.698 861.32 552.656V559.344C860.82 559.427 860.195 559.5 859.445 559.562C858.716 559.646 857.872 559.688 856.914 559.688ZM891.071 559.688C887.363 559.688 884.613 558.906 882.821 557.344C881.03 555.781 880.134 553.208 880.134 549.625V532.375H875.478V525.5H880.134V517.312H889.353V525.5H895.478V532.375H889.353V548.625C889.353 550.188 889.696 551.281 890.384 551.906C891.092 552.51 892.134 552.812 893.509 552.812C893.925 552.812 894.29 552.802 894.603 552.781C894.915 552.74 895.207 552.698 895.478 552.656V559.344C894.978 559.427 894.353 559.5 893.603 559.562C892.873 559.646 892.03 559.688 891.071 559.688ZM900.087 559V513.906H909.212V531.281H909.4C910.275 529.198 911.577 527.604 913.306 526.5C915.056 525.375 917.181 524.812 919.681 524.812C922.119 524.812 924.212 525.354 925.962 526.438C927.712 527.5 929.056 529.01 929.994 530.969C930.952 532.927 931.431 535.26 931.431 537.969V559H922.306V539.844C922.306 537.51 921.744 535.688 920.619 534.375C919.515 533.042 917.921 532.375 915.837 532.375C914.504 532.375 913.337 532.698 912.337 533.344C911.358 533.969 910.587 534.844 910.025 535.969C909.483 537.073 909.212 538.354 909.212 539.812V559H900.087ZM951.916 559.688C948.5 559.688 945.562 558.99 943.104 557.594C940.645 556.177 938.75 554.167 937.416 551.562C936.104 548.958 935.448 545.875 935.448 542.312V542.281C935.448 538.719 936.104 535.635 937.416 533.031C938.75 530.406 940.614 528.385 943.01 526.969C945.427 525.531 948.27 524.812 951.541 524.812C954.812 524.812 957.635 525.51 960.01 526.906C962.406 528.281 964.25 530.229 965.541 532.75C966.854 535.271 967.51 538.219 967.51 541.594V544.406H939.916V538.656H963.198L958.854 544.031V540.531C958.854 538.573 958.552 536.938 957.948 535.625C957.343 534.292 956.5 533.292 955.416 532.625C954.354 531.958 953.114 531.625 951.698 531.625C950.281 531.625 949.02 531.969 947.916 532.656C946.833 533.344 945.979 534.354 945.354 535.688C944.75 537 944.448 538.615 944.448 540.531V544.062C944.448 545.917 944.75 547.5 945.354 548.812C945.979 550.125 946.864 551.135 948.01 551.844C949.156 552.531 950.52 552.875 952.104 552.875C953.354 552.875 954.437 552.677 955.354 552.281C956.27 551.885 957.02 551.385 957.604 550.781C958.187 550.177 958.583 549.562 958.791 548.938L958.854 548.75H967.229L967.135 549.094C966.885 550.323 966.395 551.562 965.666 552.812C964.937 554.062 963.948 555.208 962.698 556.25C961.468 557.292 959.958 558.125 958.166 558.75C956.395 559.375 954.312 559.688 951.916 559.688ZM983.636 569.938V525.5H992.761V531.344H992.98C993.584 529.99 994.376 528.823 995.355 527.844C996.355 526.865 997.511 526.115 998.824 525.594C1000.16 525.073 1001.62 524.812 1003.2 524.812C1006.03 524.812 1008.47 525.51 1010.51 526.906C1012.55 528.281 1014.13 530.271 1015.23 532.875C1016.33 535.479 1016.89 538.594 1016.89 542.219V542.25C1016.89 545.875 1016.33 548.99 1015.23 551.594C1014.15 554.198 1012.59 556.198 1010.57 557.594C1008.55 558.99 1006.14 559.688 1003.32 559.688C1001.74 559.688 1000.27 559.427 998.918 558.906C997.563 558.385 996.386 557.656 995.386 556.719C994.386 555.76 993.574 554.615 992.949 553.281H992.761V569.938H983.636ZM1000.2 552.125C1001.72 552.125 1003.03 551.729 1004.14 550.938C1005.24 550.125 1006.09 548.979 1006.7 547.5C1007.3 546.021 1007.61 544.271 1007.61 542.25V542.219C1007.61 540.177 1007.3 538.417 1006.7 536.938C1006.09 535.458 1005.23 534.333 1004.11 533.562C1003 532.771 1001.7 532.375 1000.2 532.375C998.72 532.375 997.418 532.781 996.293 533.594C995.168 534.385 994.293 535.521 993.668 537C993.043 538.458 992.73 540.208 992.73 542.25V542.281C992.73 544.281 993.043 546.021 993.668 547.5C994.313 548.979 995.188 550.125 996.293 550.938C997.418 551.729 998.72 552.125 1000.2 552.125ZM1030.97 559.531C1028.74 559.531 1026.78 559.104 1025.09 558.25C1023.4 557.375 1022.08 556.177 1021.12 554.656C1020.18 553.115 1019.72 551.365 1019.72 549.406V549.344C1019.72 547.302 1020.23 545.562 1021.25 544.125C1022.27 542.667 1023.75 541.521 1025.68 540.688C1027.62 539.854 1029.98 539.344 1032.75 539.156L1045.81 538.344V544.031L1034.12 544.781C1032.37 544.885 1031.04 545.302 1030.12 546.031C1029.2 546.74 1028.75 547.688 1028.75 548.875V548.938C1028.75 550.167 1029.22 551.135 1030.15 551.844C1031.09 552.531 1032.35 552.875 1033.93 552.875C1035.29 552.875 1036.5 552.615 1037.56 552.094C1038.64 551.552 1039.49 550.823 1040.09 549.906C1040.72 548.969 1041.03 547.917 1041.03 546.75V536.594C1041.03 535.115 1040.56 533.948 1039.62 533.094C1038.68 532.219 1037.32 531.781 1035.53 531.781C1033.82 531.781 1032.47 532.135 1031.47 532.844C1030.47 533.552 1029.85 534.448 1029.62 535.531L1029.56 535.812H1021.22L1021.25 535.438C1021.41 533.375 1022.09 531.542 1023.28 529.938C1024.49 528.333 1026.15 527.083 1028.28 526.188C1030.42 525.271 1032.97 524.812 1035.9 524.812C1038.8 524.812 1041.31 525.281 1043.43 526.219C1045.56 527.135 1047.2 528.438 1048.37 530.125C1049.56 531.812 1050.15 533.781 1050.15 536.031V559H1041.03V554H1040.84C1040.22 555.146 1039.4 556.135 1038.4 556.969C1037.42 557.781 1036.31 558.417 1035.06 558.875C1033.81 559.312 1032.44 559.531 1030.97 559.531ZM1071.08 570.625C1068.01 570.625 1065.34 570.198 1063.04 569.344C1060.77 568.51 1058.96 567.375 1057.61 565.938C1056.27 564.5 1055.46 562.885 1055.17 561.094L1055.14 560.812H1064.01L1064.11 561.031C1064.48 561.844 1065.26 562.562 1066.45 563.188C1067.64 563.812 1069.18 564.125 1071.08 564.125C1073.43 564.125 1075.22 563.562 1076.45 562.438C1077.68 561.312 1078.29 559.812 1078.29 557.938V552.812H1078.11C1077.52 553.979 1076.73 554.99 1075.73 555.844C1074.73 556.698 1073.55 557.365 1072.2 557.844C1070.87 558.302 1069.39 558.531 1067.76 558.531C1064.97 558.531 1062.55 557.865 1060.51 556.531C1058.49 555.198 1056.93 553.292 1055.83 550.812C1054.74 548.312 1054.2 545.333 1054.2 541.875V541.844C1054.2 538.281 1054.75 535.229 1055.86 532.688C1056.98 530.146 1058.56 528.198 1060.61 526.844C1062.65 525.49 1065.09 524.812 1067.92 524.812C1069.5 524.812 1070.95 525.073 1072.26 525.594C1073.58 526.115 1074.72 526.854 1075.7 527.812C1076.7 528.771 1077.5 529.906 1078.11 531.219H1078.29V525.5H1087.42V558.062C1087.42 560.542 1086.75 562.719 1085.42 564.594C1084.11 566.49 1082.22 567.969 1079.76 569.031C1077.33 570.094 1074.43 570.625 1071.08 570.625ZM1070.92 551.844C1072.42 551.844 1073.72 551.448 1074.83 550.656C1075.93 549.865 1076.78 548.74 1077.39 547.281C1078.01 545.823 1078.33 544.094 1078.33 542.094V542.062C1078.33 540.062 1078.01 538.344 1077.39 536.906C1076.78 535.448 1075.92 534.333 1074.79 533.562C1073.69 532.771 1072.4 532.375 1070.92 532.375C1069.42 532.375 1068.11 532.771 1066.98 533.562C1065.86 534.333 1064.99 535.438 1064.39 536.875C1063.78 538.312 1063.48 540.042 1063.48 542.062V542.094C1063.48 544.094 1063.78 545.823 1064.39 547.281C1064.99 548.74 1065.86 549.865 1066.98 550.656C1068.11 551.448 1069.42 551.844 1070.92 551.844ZM1108.03 559.688C1104.61 559.688 1101.67 558.99 1099.22 557.594C1096.76 556.177 1094.86 554.167 1093.53 551.562C1092.22 548.958 1091.56 545.875 1091.56 542.312V542.281C1091.56 538.719 1092.22 535.635 1093.53 533.031C1094.86 530.406 1096.73 528.385 1099.12 526.969C1101.54 525.531 1104.38 524.812 1107.65 524.812C1110.92 524.812 1113.75 525.51 1116.12 526.906C1118.52 528.281 1120.36 530.229 1121.65 532.75C1122.97 535.271 1123.62 538.219 1123.62 541.594V544.406H1096.03V538.656H1119.31L1114.97 544.031V540.531C1114.97 538.573 1114.66 536.938 1114.06 535.625C1113.46 534.292 1112.61 533.292 1111.53 532.625C1110.47 531.958 1109.23 531.625 1107.81 531.625C1106.39 531.625 1105.13 531.969 1104.03 532.656C1102.95 533.344 1102.09 534.354 1101.47 535.688C1100.86 537 1100.56 538.615 1100.56 540.531V544.062C1100.56 545.917 1100.86 547.5 1101.47 548.812C1102.09 550.125 1102.98 551.135 1104.12 551.844C1105.27 552.531 1106.63 552.875 1108.22 552.875C1109.47 552.875 1110.55 552.677 1111.47 552.281C1112.38 551.885 1113.13 551.385 1113.72 550.781C1114.3 550.177 1114.7 549.562 1114.9 548.938L1114.97 548.75H1123.34L1123.25 549.094C1123 550.323 1122.51 551.562 1121.78 552.812C1121.05 554.062 1120.06 555.208 1118.81 556.25C1117.58 557.292 1116.07 558.125 1114.28 558.75C1112.51 559.375 1110.42 559.688 1108.03 559.688ZM1155.12 559.688C1151.73 559.688 1148.79 558.99 1146.31 557.594C1143.83 556.198 1141.92 554.198 1140.56 551.594C1139.21 548.99 1138.53 545.875 1138.53 542.25V542.188C1138.53 538.583 1139.22 535.49 1140.59 532.906C1141.97 530.302 1143.89 528.302 1146.37 526.906C1148.85 525.51 1151.76 524.812 1155.09 524.812C1158.45 524.812 1161.36 525.51 1163.84 526.906C1166.34 528.281 1168.28 530.271 1169.66 532.875C1171.03 535.458 1171.72 538.562 1171.72 542.188V542.25C1171.72 545.896 1171.03 549.021 1169.66 551.625C1168.3 554.229 1166.38 556.229 1163.91 557.625C1161.43 559 1158.5 559.688 1155.12 559.688ZM1155.16 552.531C1156.63 552.531 1157.92 552.135 1159 551.344C1160.1 550.531 1160.95 549.365 1161.53 547.844C1162.13 546.302 1162.44 544.438 1162.44 542.25V542.188C1162.44 540.021 1162.13 538.177 1161.53 536.656C1160.93 535.135 1160.07 533.979 1158.97 533.188C1157.86 532.375 1156.57 531.969 1155.09 531.969C1153.63 531.969 1152.35 532.375 1151.25 533.188C1150.17 533.979 1149.32 535.135 1148.72 536.656C1148.11 538.177 1147.81 540.021 1147.81 542.188V542.25C1147.81 544.438 1148.1 546.302 1148.69 547.844C1149.29 549.365 1150.14 550.531 1151.25 551.344C1152.35 552.135 1153.66 552.531 1155.16 552.531ZM1175.8 559V525.5H1184.92V531H1185.11C1185.98 529.083 1187.28 527.573 1188.98 526.469C1190.69 525.365 1192.81 524.812 1195.33 524.812C1199.02 524.812 1201.86 525.927 1203.86 528.156C1205.88 530.365 1206.89 533.438 1206.89 537.375V559H1197.77V539.25C1197.77 537.062 1197.24 535.375 1196.2 534.188C1195.18 532.979 1193.65 532.375 1191.61 532.375C1190.25 532.375 1189.08 532.688 1188.08 533.312C1187.08 533.917 1186.3 534.771 1185.73 535.875C1185.19 536.979 1184.92 538.271 1184.92 539.75V559H1175.8ZM489.969 649V615.5H499.094V621H499.281C500.156 619.083 501.448 617.573 503.156 616.469C504.865 615.365 506.979 614.812 509.5 614.812C513.188 614.812 516.031 615.927 518.031 618.156C520.052 620.365 521.062 623.438 521.062 627.375V649H511.938V629.25C511.938 627.062 511.417 625.375 510.375 624.188C509.354 622.979 507.823 622.375 505.781 622.375C504.427 622.375 503.25 622.688 502.25 623.312C501.25 623.917 500.469 624.771 499.906 625.875C499.365 626.979 499.094 628.271 499.094 629.75V649H489.969ZM536.173 649.531C533.943 649.531 531.985 649.104 530.298 648.25C528.61 647.375 527.287 646.177 526.329 644.656C525.391 643.115 524.923 641.365 524.923 639.406V639.344C524.923 637.302 525.433 635.562 526.454 634.125C527.475 632.667 528.954 631.521 530.891 630.688C532.829 629.854 535.183 629.344 537.954 629.156L551.016 628.344V634.031L539.329 634.781C537.579 634.885 536.245 635.302 535.329 636.031C534.412 636.74 533.954 637.688 533.954 638.875V638.938C533.954 640.167 534.423 641.135 535.36 641.844C536.298 642.531 537.558 642.875 539.141 642.875C540.495 642.875 541.704 642.615 542.766 642.094C543.85 641.552 544.693 640.823 545.298 639.906C545.923 638.969 546.235 637.917 546.235 636.75V626.594C546.235 625.115 545.766 623.948 544.829 623.094C543.891 622.219 542.527 621.781 540.735 621.781C539.027 621.781 537.673 622.135 536.673 622.844C535.673 623.552 535.058 624.448 534.829 625.531L534.766 625.812H526.423L526.454 625.438C526.62 623.375 527.298 621.542 528.485 619.938C529.693 618.333 531.36 617.083 533.485 616.188C535.631 615.271 538.173 614.812 541.11 614.812C544.006 614.812 546.516 615.281 548.641 616.219C550.766 617.135 552.412 618.438 553.579 620.125C554.766 621.812 555.36 623.781 555.36 626.031V649H546.235V644H546.048C545.423 645.146 544.61 646.135 543.61 646.969C542.631 647.781 541.516 648.417 540.266 648.875C539.016 649.312 537.652 649.531 536.173 649.531ZM569.283 649L557.689 615.5H567.439L574.439 640.938H574.626L581.533 615.5H591.064L579.564 649H569.283ZM593.799 649V615.5H602.924V649H593.799ZM598.361 611.188C596.986 611.188 595.83 610.719 594.893 609.781C593.955 608.844 593.486 607.729 593.486 606.438C593.486 605.125 593.955 604.01 594.893 603.094C595.83 602.156 596.986 601.688 598.361 601.688C599.736 601.688 600.893 602.156 601.83 603.094C602.768 604.01 603.236 605.125 603.236 606.438C603.236 607.729 602.768 608.844 601.83 609.781C600.893 610.719 599.736 611.188 598.361 611.188ZM624.065 660.625C621.003 660.625 618.325 660.198 616.034 659.344C613.763 658.51 611.95 657.375 610.596 655.938C609.263 654.5 608.45 652.885 608.159 651.094L608.128 650.812H617.003L617.096 651.031C617.471 651.844 618.253 652.562 619.44 653.188C620.628 653.812 622.169 654.125 624.065 654.125C626.419 654.125 628.211 653.562 629.44 652.438C630.669 651.312 631.284 649.812 631.284 647.938V642.812H631.096C630.513 643.979 629.721 644.99 628.721 645.844C627.721 646.698 626.544 647.365 625.19 647.844C623.857 648.302 622.378 648.531 620.753 648.531C617.961 648.531 615.544 647.865 613.503 646.531C611.482 645.198 609.919 643.292 608.815 640.812C607.732 638.312 607.19 635.333 607.19 631.875V631.844C607.19 628.281 607.742 625.229 608.846 622.688C609.971 620.146 611.555 618.198 613.596 616.844C615.638 615.49 618.075 614.812 620.909 614.812C622.492 614.812 623.94 615.073 625.253 615.594C626.565 616.115 627.711 616.854 628.69 617.812C629.69 618.771 630.492 619.906 631.096 621.219H631.284V615.5H640.409V648.062C640.409 650.542 639.742 652.719 638.409 654.594C637.096 656.49 635.211 657.969 632.753 659.031C630.315 660.094 627.419 660.625 624.065 660.625ZM623.909 641.844C625.409 641.844 626.711 641.448 627.815 640.656C628.919 639.865 629.773 638.74 630.378 637.281C631.003 635.823 631.315 634.094 631.315 632.094V632.062C631.315 630.062 631.003 628.344 630.378 626.906C629.773 625.448 628.909 624.333 627.784 623.562C626.68 622.771 625.388 622.375 623.909 622.375C622.409 622.375 621.096 622.771 619.971 623.562C618.846 624.333 617.982 625.438 617.378 626.875C616.773 628.312 616.471 630.042 616.471 632.062V632.094C616.471 634.094 616.773 635.823 617.378 637.281C617.982 638.74 618.846 639.865 619.971 640.656C621.096 641.448 622.409 641.844 623.909 641.844ZM655.738 649.531C653.508 649.531 651.55 649.104 649.863 648.25C648.175 647.375 646.852 646.177 645.894 644.656C644.956 643.115 644.488 641.365 644.488 639.406V639.344C644.488 637.302 644.998 635.562 646.019 634.125C647.04 632.667 648.519 631.521 650.456 630.688C652.394 629.854 654.748 629.344 657.519 629.156L670.581 628.344V634.031L658.894 634.781C657.144 634.885 655.81 635.302 654.894 636.031C653.977 636.74 653.519 637.688 653.519 638.875V638.938C653.519 640.167 653.988 641.135 654.925 641.844C655.863 642.531 657.123 642.875 658.706 642.875C660.06 642.875 661.269 642.615 662.331 642.094C663.415 641.552 664.258 640.823 664.863 639.906C665.488 638.969 665.8 637.917 665.8 636.75V626.594C665.8 625.115 665.331 623.948 664.394 623.094C663.456 622.219 662.092 621.781 660.3 621.781C658.592 621.781 657.238 622.135 656.238 622.844C655.238 623.552 654.623 624.448 654.394 625.531L654.331 625.812H645.988L646.019 625.438C646.185 623.375 646.863 621.542 648.05 619.938C649.258 618.333 650.925 617.083 653.05 616.188C655.196 615.271 657.738 614.812 660.675 614.812C663.571 614.812 666.081 615.281 668.206 616.219C670.331 617.135 671.977 618.438 673.144 620.125C674.331 621.812 674.925 623.781 674.925 626.031V649H665.8V644H665.613C664.988 645.146 664.175 646.135 663.175 646.969C662.196 647.781 661.081 648.417 659.831 648.875C658.581 649.312 657.217 649.531 655.738 649.531ZM693.504 649.688C689.795 649.688 687.045 648.906 685.254 647.344C683.462 645.781 682.566 643.208 682.566 639.625V622.375H677.91V615.5H682.566V607.312H691.785V615.5H697.91V622.375H691.785V638.625C691.785 640.188 692.129 641.281 692.816 641.906C693.525 642.51 694.566 642.812 695.941 642.812C696.358 642.812 696.723 642.802 697.035 642.781C697.348 642.74 697.639 642.698 697.91 642.656V649.344C697.41 649.427 696.785 649.5 696.035 649.562C695.306 649.646 694.462 649.688 693.504 649.688ZM717.239 649.688C713.843 649.688 710.905 648.99 708.426 647.594C705.947 646.198 704.03 644.198 702.676 641.594C701.322 638.99 700.645 635.875 700.645 632.25V632.188C700.645 628.583 701.333 625.49 702.708 622.906C704.083 620.302 706.01 618.302 708.489 616.906C710.968 615.51 713.874 614.812 717.208 614.812C720.562 614.812 723.478 615.51 725.958 616.906C728.458 618.281 730.395 620.271 731.77 622.875C733.145 625.458 733.833 628.562 733.833 632.188V632.25C733.833 635.896 733.145 639.021 731.77 641.625C730.416 644.229 728.499 646.229 726.02 647.625C723.541 649 720.614 649.688 717.239 649.688ZM717.27 642.531C718.749 642.531 720.03 642.135 721.114 641.344C722.218 640.531 723.062 639.365 723.645 637.844C724.249 636.302 724.551 634.438 724.551 632.25V632.188C724.551 630.021 724.249 628.177 723.645 626.656C723.041 625.135 722.187 623.979 721.083 623.188C719.978 622.375 718.687 621.969 717.208 621.969C715.749 621.969 714.468 622.375 713.364 623.188C712.28 623.979 711.437 625.135 710.833 626.656C710.228 628.177 709.926 630.021 709.926 632.188V632.25C709.926 634.438 710.218 636.302 710.801 637.844C711.405 639.365 712.26 640.531 713.364 641.344C714.468 642.135 715.77 642.531 717.27 642.531ZM737.911 649V615.5H747.036V621.344H747.224C747.724 619.281 748.63 617.677 749.943 616.531C751.255 615.385 752.89 614.812 754.849 614.812C755.349 614.812 755.828 614.844 756.286 614.906C756.745 614.969 757.14 615.052 757.474 615.156V623.188C757.099 623.042 756.62 622.927 756.036 622.844C755.453 622.74 754.828 622.688 754.161 622.688C752.661 622.688 751.38 622.979 750.318 623.562C749.255 624.146 748.443 625 747.88 626.125C747.318 627.25 747.036 628.625 747.036 630.25V649H737.911Z" fill="black"/>
<defs>
<filter id="filter0_d_709_336" x="509" y="38" width="710" height="100" filterUnits="userSpaceOnUse" color-interpolation-filters="sRGB">
<feFlood flood-opacity="0" result="BackgroundImageFix"/>
<feColorMatrix in="SourceAlpha" type="matrix" values="0 0 0 0 0 0 0 0 0 0 0 0 0 0 0 0 0 0 127 0" result="hardAlpha"/>
<feOffset dy="12"/>
<feGaussianBlur stdDeviation="10"/>
<feComposite in2="hardAlpha" operator="out"/>
<feColorMatrix type="matrix" values="0 0 0 0 0 0 0 0 0 0 0 0 0 0 0 0 0 0 0.04 0"/>
<feBlend mode="normal" in2="BackgroundImageFix" result="effect1_dropShadow_709_336"/>
<feBlend mode="normal" in="SourceGraphic" in2="effect1_dropShadow_709_336" result="shape"/>
</filter>
</defs>
</svg>
